# xmcd
#
# Track frame offsets:
#	150
#	13573
#	28238
#	39590
#	52794
#	65053
#	75039
#	91656
#	119802
#	135378
#	149925
#	172059
#	186589
#	201489
#	218396
#	229445
#	241845
#	254285
#	272394
#	292185
#
# Disc length: 4009 seconds
#
# Revision: 1
# Processed by: cddbd v1.5.2PL0 Copyright (c) Steve Scherf et al.
# Submitted via: audiograbber 1.83.01
#
DISCID=2b0fa714
DTITLE=VARIOS - PIAUIENSES DO BARULHO-2
DYEAR=1900
DGENRE=
TTITLE0=LUIZ MELODIA E RENATO PIAU - FADAS
TTITLE1=JORGE MELLO - SE ACASO VOCÊ CHEGASSE
TTITLE2=CLODO, CLIMÉRIO E CLÉSIO - DILÚVIO
TTITLE3=XANGAI - POR TE QUERER
TTITLE4=NAENO E PAPETE - LONGWE DOS MEUS OLHOS
TTITLE5=JOÃO CLÁUDIO - SAI PRA LÁ NOJENTO
TTITLE6=JORGE MELLO - AVENIDA PAULISTA
TTITLE7=ERISVALDO BORGES - ÁRIA DA 4ª CORDA
TTITLE8=LUIZ MELODIA E RENATO PIAU - ME BEIJA
TTITLE9=LÁZARO DO PIAUÍ - AGORA É TARDE
TTITLE10=JORGE MELLO - BESTA FERA
TTITLE11=CRUZ NETO - MORENA 40º
TTITLE12=EDVALDO NASCIMENTO - MENINO QUANDO CRESCER
TTITLE13=CLIMÉRIO FERREIRA - BLASFÊMIA
TTITLE14=CAROL COSTA - CANÇÃO AO LUAR
TTITLE15=WILSON SEIXAS - NAIR
TTITLE16=EDVALDO NASCIMENTO - MALUCA
TTITLE17=RUBENI MIRANDA - BOULEVARD FREI SERAFIM
TTITLE18=LUIS SANTOS - BOI DA VILA
TTITLE19=ARQUIVO MUSICAL - ESQUENTANDO O BICO
EXTD=
EXTT0=
EXTT1=
EXTT2=
EXTT3=
EXTT4=
EXTT5=
EXTT6=
EXTT7=
EXTT8=
EXTT9=
EXTT10=
EXTT11=
EXTT12=
EXTT13=
EXTT14=
EXTT15=
EXTT16=
EXTT17=
EXTT18=
EXTT19=
PLAYORDER=
